<mxfile host="Electron" modified="2024-04-02T01:18:42.165Z" agent="Mozilla/5.0 (Windows NT 10.0; Win64; x64) AppleWebKit/537.36 (KHTML, like Gecko) draw.io/24.1.0 Chrome/120.0.6099.109 Electron/28.1.0 Safari/537.36" etag="nXvFVXIi6puUHoPL68kY" version="24.1.0" type="device">
  <diagram name="Página-1" id="EJ5bXzTJEP-0g3i7TX0C">
    <mxGraphModel dx="1420" dy="830" grid="1" gridSize="10" guides="1" tooltips="1" connect="1" arrows="1" fold="1" page="1" pageScale="1" pageWidth="827" pageHeight="1169" background="#CCE5FF" math="0" shadow="0">
      <root>
        <mxCell id="0" />
        <mxCell id="1" parent="0" />
        <mxCell id="Kl_D9ej7MjD4cyOD_Ned-1" value="&lt;p style=&quot;line-height: 110%;&quot;&gt;&lt;font style=&quot;font-size: 16px;&quot; color=&quot;#000000&quot; face=&quot;Comic Sans MS&quot;&gt;&lt;b&gt;15&lt;br&gt;&lt;br&gt;La amplitud térmica es la diferencia entre la temperatura máxima y la temperatura mínima en una zona y tiempo determinado. Dada la temperatura máxima y la temperatura mínima de San Fernando de ayer, calcular y mostrar la amplitud térmica.&lt;br&gt;&lt;br&gt;NOTA: El usuario ingresará como temperatura máxima un valor mayor o igual al de la temperatura mínima.&lt;/b&gt;&lt;/font&gt;&lt;/p&gt;" style="text;whiteSpace=wrap;html=1;fontFamily=Architects Daughter;fontSource=https%3A%2F%2Ffonts.googleapis.com%2Fcss%3Ffamily%3DArchitects%2BDaughter;" vertex="1" parent="1">
          <mxGeometry x="90" y="10" width="600" height="170" as="geometry" />
        </mxCell>
        <mxCell id="Kl_D9ej7MjD4cyOD_Ned-23" value="" style="group;aspect=fixed;" vertex="1" connectable="0" parent="1">
          <mxGeometry x="105" y="210" width="490" height="370" as="geometry" />
        </mxCell>
        <mxCell id="Kl_D9ej7MjD4cyOD_Ned-8" value="" style="group;aspect=fixed;" vertex="1" connectable="0" parent="Kl_D9ej7MjD4cyOD_Ned-23">
          <mxGeometry x="225" width="40" height="40" as="geometry" />
        </mxCell>
        <mxCell id="Kl_D9ej7MjD4cyOD_Ned-2" value="" style="strokeWidth=2;html=1;shape=mxgraph.flowchart.start_2;whiteSpace=wrap;rounded=0;labelBackgroundColor=none;strokeColor=#000000;align=center;verticalAlign=middle;fontFamily=Helvetica;fontSize=12;fontColor=default;fillColor=#d5e8d4;aspect=fixed;" vertex="1" parent="Kl_D9ej7MjD4cyOD_Ned-8">
          <mxGeometry width="40" height="40" as="geometry" />
        </mxCell>
        <mxCell id="Kl_D9ej7MjD4cyOD_Ned-6" value="&lt;b&gt;&lt;font color=&quot;#000000&quot; style=&quot;font-size: 17px;&quot; face=&quot;Comic Sans MS&quot;&gt;I&lt;/font&gt;&lt;/b&gt;" style="text;strokeColor=none;align=center;fillColor=none;html=1;verticalAlign=middle;whiteSpace=wrap;rounded=0;fontFamily=Architects Daughter;fontSource=https%3A%2F%2Ffonts.googleapis.com%2Fcss%3Ffamily%3DArchitects%2BDaughter;aspect=fixed;" vertex="1" parent="Kl_D9ej7MjD4cyOD_Ned-8">
          <mxGeometry x="5" y="5" width="30" height="30" as="geometry" />
        </mxCell>
        <mxCell id="Kl_D9ej7MjD4cyOD_Ned-9" value="" style="group;aspect=fixed;" vertex="1" connectable="0" parent="Kl_D9ej7MjD4cyOD_Ned-23">
          <mxGeometry x="225" y="330" width="40" height="40" as="geometry" />
        </mxCell>
        <mxCell id="Kl_D9ej7MjD4cyOD_Ned-3" value="" style="strokeWidth=2;html=1;shape=mxgraph.flowchart.start_2;whiteSpace=wrap;rounded=0;labelBackgroundColor=none;strokeColor=#000000;align=center;verticalAlign=middle;fontFamily=Helvetica;fontSize=12;fontColor=default;fillColor=#d5e8d4;" vertex="1" parent="Kl_D9ej7MjD4cyOD_Ned-9">
          <mxGeometry width="40" height="40" as="geometry" />
        </mxCell>
        <mxCell id="Kl_D9ej7MjD4cyOD_Ned-7" value="&lt;font face=&quot;Comic Sans MS&quot; color=&quot;#000000&quot;&gt;&lt;span style=&quot;font-size: 17px;&quot;&gt;&lt;b&gt;F&lt;/b&gt;&lt;/span&gt;&lt;/font&gt;" style="text;strokeColor=none;align=center;fillColor=none;html=1;verticalAlign=middle;whiteSpace=wrap;rounded=0;fontFamily=Architects Daughter;fontSource=https://fonts.googleapis.com/css?family=Architects+Daughter;" vertex="1" parent="Kl_D9ej7MjD4cyOD_Ned-9">
          <mxGeometry x="5" y="5" width="30" height="30" as="geometry" />
        </mxCell>
        <mxCell id="Kl_D9ej7MjD4cyOD_Ned-12" value="" style="group;aspect=fixed;" vertex="1" connectable="0" parent="Kl_D9ej7MjD4cyOD_Ned-23">
          <mxGeometry x="135" y="80" width="220" height="50" as="geometry" />
        </mxCell>
        <mxCell id="Kl_D9ej7MjD4cyOD_Ned-4" value="" style="shape=trapezoid;perimeter=trapezoidPerimeter;whiteSpace=wrap;html=1;fixedSize=1;rounded=0;labelBackgroundColor=none;strokeColor=#121211;strokeWidth=2;align=center;verticalAlign=middle;fontFamily=Helvetica;fontSize=12;fontColor=default;fillColor=#d5e8d4;direction=west;container=0;" vertex="1" parent="Kl_D9ej7MjD4cyOD_Ned-12">
          <mxGeometry width="220" height="50" as="geometry">
            <mxRectangle x="-1020" y="-650" width="50" height="40" as="alternateBounds" />
          </mxGeometry>
        </mxCell>
        <mxCell id="Kl_D9ej7MjD4cyOD_Ned-10" value="&lt;font face=&quot;Comic Sans MS&quot; color=&quot;#000000&quot;&gt;&lt;span style=&quot;font-size: 15px;&quot;&gt;&lt;b&gt;temperatura_maxima,&lt;/b&gt;&lt;/span&gt;&lt;/font&gt;&lt;div&gt;&lt;font face=&quot;Comic Sans MS&quot; color=&quot;#000000&quot;&gt;&lt;span style=&quot;font-size: 15px;&quot;&gt;&lt;b&gt;temperatura_minima&lt;/b&gt;&lt;/span&gt;&lt;/font&gt;&lt;/div&gt;" style="text;strokeColor=none;align=center;fillColor=none;html=1;verticalAlign=middle;whiteSpace=wrap;rounded=0;fontFamily=Architects Daughter;fontSource=https://fonts.googleapis.com/css?family=Architects+Daughter;container=0;" vertex="1" parent="Kl_D9ej7MjD4cyOD_Ned-12">
          <mxGeometry x="30" y="10" width="160" height="30" as="geometry" />
        </mxCell>
        <mxCell id="Kl_D9ej7MjD4cyOD_Ned-15" value="" style="group;aspect=fixed;" vertex="1" connectable="0" parent="Kl_D9ej7MjD4cyOD_Ned-23">
          <mxGeometry y="170" width="490" height="40" as="geometry" />
        </mxCell>
        <mxCell id="Kl_D9ej7MjD4cyOD_Ned-13" value="" style="rounded=0;whiteSpace=wrap;html=1;labelBackgroundColor=none;strokeColor=#0f100e;strokeWidth=2;align=center;verticalAlign=middle;fontFamily=Helvetica;fontSize=12;fontColor=default;fillColor=#d5e8d4;" vertex="1" parent="Kl_D9ej7MjD4cyOD_Ned-15">
          <mxGeometry width="490" height="40" as="geometry" />
        </mxCell>
        <mxCell id="Kl_D9ej7MjD4cyOD_Ned-14" value="&lt;b&gt;&lt;font color=&quot;#000000&quot; style=&quot;font-size: 15px;&quot; face=&quot;Comic Sans MS&quot;&gt;amplitud_termica = temperatura_maxima - temperatura_minima&lt;/font&gt;&lt;/b&gt;" style="text;strokeColor=none;align=center;fillColor=none;html=1;verticalAlign=middle;whiteSpace=wrap;rounded=0;fontFamily=Architects Daughter;fontSource=https://fonts.googleapis.com/css?family=Architects+Daughter;" vertex="1" parent="Kl_D9ej7MjD4cyOD_Ned-15">
          <mxGeometry x="5" y="3" width="480" height="30" as="geometry" />
        </mxCell>
        <mxCell id="Kl_D9ej7MjD4cyOD_Ned-17" value="" style="group;aspect=fixed;" vertex="1" connectable="0" parent="Kl_D9ej7MjD4cyOD_Ned-23">
          <mxGeometry x="152.5" y="250" width="185" height="40" as="geometry" />
        </mxCell>
        <mxCell id="Kl_D9ej7MjD4cyOD_Ned-5" value="" style="shape=trapezoid;perimeter=trapezoidPerimeter;whiteSpace=wrap;html=1;fixedSize=1;rounded=0;labelBackgroundColor=none;strokeColor=#0F140C;strokeWidth=2;align=center;verticalAlign=middle;fontFamily=Helvetica;fontSize=12;fontColor=default;fillColor=#d5e8d4;" vertex="1" parent="Kl_D9ej7MjD4cyOD_Ned-17">
          <mxGeometry width="185" height="40" as="geometry" />
        </mxCell>
        <mxCell id="Kl_D9ej7MjD4cyOD_Ned-16" value="&lt;font color=&quot;#000000&quot; size=&quot;1&quot; face=&quot;Comic Sans MS&quot;&gt;&lt;b style=&quot;font-size: 15px;&quot;&gt;amplitud_termica&lt;/b&gt;&lt;/font&gt;" style="text;strokeColor=none;align=center;fillColor=none;html=1;verticalAlign=middle;whiteSpace=wrap;rounded=0;fontFamily=Architects Daughter;fontSource=https%3A%2F%2Ffonts.googleapis.com%2Fcss%3Ffamily%3DArchitects%2BDaughter;" vertex="1" parent="Kl_D9ej7MjD4cyOD_Ned-17">
          <mxGeometry x="17.5" y="5" width="150" height="30" as="geometry" />
        </mxCell>
        <mxCell id="Kl_D9ej7MjD4cyOD_Ned-18" value="" style="line;strokeWidth=2;direction=south;html=1;hachureGap=4;fontFamily=Architects Daughter;fontSource=https://fonts.googleapis.com/css?family=Architects+Daughter;strokeColor=#000000;" vertex="1" parent="Kl_D9ej7MjD4cyOD_Ned-23">
          <mxGeometry x="240" y="130" width="10" height="40" as="geometry" />
        </mxCell>
        <mxCell id="Kl_D9ej7MjD4cyOD_Ned-19" value="" style="line;strokeWidth=2;direction=south;html=1;hachureGap=4;fontFamily=Architects Daughter;fontSource=https://fonts.googleapis.com/css?family=Architects+Daughter;strokeColor=#000000;" vertex="1" parent="Kl_D9ej7MjD4cyOD_Ned-23">
          <mxGeometry x="240" y="40" width="10" height="40" as="geometry" />
        </mxCell>
        <mxCell id="Kl_D9ej7MjD4cyOD_Ned-20" value="" style="line;strokeWidth=2;direction=south;html=1;hachureGap=4;fontFamily=Architects Daughter;fontSource=https://fonts.googleapis.com/css?family=Architects+Daughter;strokeColor=#000000;" vertex="1" parent="Kl_D9ej7MjD4cyOD_Ned-23">
          <mxGeometry x="240" y="290" width="10" height="40" as="geometry" />
        </mxCell>
        <mxCell id="Kl_D9ej7MjD4cyOD_Ned-21" value="" style="line;strokeWidth=2;direction=south;html=1;hachureGap=4;fontFamily=Architects Daughter;fontSource=https://fonts.googleapis.com/css?family=Architects+Daughter;strokeColor=#000000;" vertex="1" parent="Kl_D9ej7MjD4cyOD_Ned-23">
          <mxGeometry x="240" y="210" width="10" height="40" as="geometry" />
        </mxCell>
      </root>
    </mxGraphModel>
  </diagram>
</mxfile>
